# xmcd
#
# Track frame offsets: 
#        150
#        12067
#        24981
#        38592
#        47536
#        60311
#        69673
#        83531
#        98730
#        111226
#        121744
#        131621
#
# Disc length: 1975 seconds
#
# Revision: 0
# Processed by: cddbd v1.5.2PL0 Copyright (c) Steve Scherf et al.
# Submitted via: ExactAudioCopy v1.0b4
#
DISCID=8507b50c
DTITLE=Rolling Stones, The - Got Live If You Want It! (LP)
DYEAR=1967
DGENRE=Blues
TTITLE0=Under My Thumb
TTITLE1=Get Off Of My Clioud
TTITLE2=Lady Jane
TTITLE3=Not Fade Away
TTITLE4=I've Been Loving You Too Long
TTITLE5=Fortune Teller
TTITLE6=The Last Time
TTITLE7=19th Nervous Breakdown
TTITLE8=Time Is On My Side
TTITLE9=I'm Alright
TTITLE10=Have You Seen Your Mother, Baby, Standing In The Shadow
TTITLE11=Satisfaction
EXTD=
EXTT0=
EXTT1=
EXTT2=
EXTT3=
EXTT4=
EXTT5=
EXTT6=
EXTT7=
EXTT8=
EXTT9=
EXTT10=
EXTT11=
PLAYORDER=
